#N canvas 857 232 394 408 10;
#X obj 66 68 sqrt~;
#X obj 66 24 inlet~;
#X obj 66 46 *~;
#X obj 50 287 outlet~;
#X text 121 16 calculates compression multiplier;
#X text 121 31 \$1: 1/attack;
#X text 121 46 \$2: 1/release;
#X obj 66 90 rmstodb~;
#X obj 65 134 lop~ \$1;
#X obj 86 112 lop~ \$2;
#X obj 65 156 max~;
#X obj 20 199 sig~ 1;
#X obj 50 243 /~;
#X obj 65 177 dbtorms~;
#X obj 50 265 min~ \$3;
#X text 121 61 \$3 max amplification;
#X obj 65 199 *~ 5;
#X obj 65 221 +~ 1e-005;
#X connect 0 0 7 0;
#X connect 1 0 2 0;
#X connect 1 0 2 1;
#X connect 2 0 0 0;
#X connect 7 0 9 0;
#X connect 7 0 8 0;
#X connect 8 0 10 0;
#X connect 9 0 10 1;
#X connect 10 0 13 0;
#X connect 11 0 12 0;
#X connect 12 0 14 0;
#X connect 13 0 16 0;
#X connect 14 0 3 0;
#X connect 16 0 17 0;
#X connect 17 0 12 1;
