#N canvas 325 298 450 300 10;
#X obj 9 16 inlet~;
#X obj 60 16 inlet~;
#X obj 89 113 min~;
#X obj 10 156 *~;
#X obj 61 155 *~;
#X obj 10 182 outlet~;
#X obj 61 182 outlet~;
#X obj 89 91 compressor~ \$2 \$3 \$4;
#X obj 89 155 gamepd-slider-out~ global-compressor-\$1 applied 0 0
\$4;
#X obj 111 69 compressor~ \$2 \$3 \$4;
#X connect 0 0 3 0;
#X connect 0 0 7 0;
#X connect 1 0 4 0;
#X connect 1 0 9 0;
#X connect 2 0 3 1;
#X connect 2 0 4 1;
#X connect 2 0 8 0;
#X connect 3 0 5 0;
#X connect 4 0 6 0;
#X connect 7 0 2 0;
#X connect 9 0 2 1;
