#N canvas 466 78 359 603 10;
#N canvas 1411 309 344 378 \$1-delay 0;
#X obj 13 314 *~;
#X obj 28 293 line~;
#X obj 37 226 loadbang;
#X msg 37 271 1 50;
#X obj 83 36 r global-tempo-milliseconds;
#X obj 13 14 catch~ \$1-delay;
#X obj 28 205 r \$1-set-delay-gain;
#X obj 108 100 r \$1-set-delay-time;
#X obj 89 77 t b f;
#X obj 83 143 + 0;
#X obj 108 120 t b f;
#X obj 83 100 * 4;
#X obj 44 249 s get-global-tempo;
#X obj 89 57 r \$1-set-delay-sync-time;
#X obj 13 336 outlet~;
#X obj 13 184 delay-feedback~ 4000 0.4;
#X obj 83 163 lop~ 10;
#X obj 154 162 lop~ 20;
#X obj 154 140 r \$1-set-delay-feedback;
#X connect 0 0 14 0;
#X connect 1 0 0 1;
#X connect 2 0 3 0;
#X connect 2 0 12 0;
#X connect 3 0 1 0;
#X connect 4 0 11 0;
#X connect 5 0 15 0;
#X connect 6 0 1 0;
#X connect 7 0 10 0;
#X connect 8 0 11 0;
#X connect 8 1 11 1;
#X connect 9 0 16 0;
#X connect 10 0 9 0;
#X connect 10 1 9 1;
#X connect 11 0 9 0;
#X connect 13 0 8 0;
#X connect 15 0 0 0;
#X connect 16 0 15 1;
#X connect 17 0 15 2;
#X connect 18 0 17 0;
#X restore 98 167 pd \$1-delay;
#N canvas 534 139 376 276 \$1-reverb 0;
#X obj 19 215 *~;
#X obj 83 215 *~;
#X obj 98 193 line~;
#X obj 108 151 loadbang;
#X msg 108 171 1 50;
#X obj 19 19 catch~ \$1-reverb;
#X obj 98 129 r \$1-set-reverb-gain;
#X obj 83 237 outlet~ r;
#X obj 20 237 outlet~ l;
#X obj 89 41 r \$1-set-reverb-feedback;
#X obj 112 63 r \$1-set-reverb-damping-frequency;
#X obj 136 85 r \$1-set-reverb-damping;
#X obj 19 107 rev3~ 100 86 3000 80;
#X connect 0 0 8 0;
#X connect 1 0 7 0;
#X connect 2 0 0 1;
#X connect 2 0 1 1;
#X connect 3 0 4 0;
#X connect 4 0 2 0;
#X connect 5 0 12 0;
#X connect 6 0 2 0;
#X connect 9 0 12 3;
#X connect 10 0 12 4;
#X connect 11 0 12 5;
#X connect 12 0 0 0;
#X connect 12 1 1 0;
#X restore 95 144 pd \$1-reverb;
#X text 227 56 \$1: mixer name;
#X obj 61 333 *~;
#X obj 214 333 *~;
#X obj 119 277 r \$1-gain;
#X obj 114 382 dac~ 1 2;
#X obj 81 122 mixer-track~ \$1 1;
#X obj 214 233 track-master right;
#X obj 61 189 compressor-stereo~ 1 8 1 1;
#X obj 61 233 track-master left;
#X obj 81 34 mixer-track~ \$1 3;
#X obj 81 78 mixer-track~ \$1 2;
#X obj 61 100 compressor-stereo~ 2 8 1 1;
#X obj 61 56 compressor-stereo~ 3 8 1 1;
#X obj 119 299 vline~;
#X connect 0 0 9 0;
#X connect 0 0 9 1;
#X connect 1 0 9 0;
#X connect 1 1 9 1;
#X connect 3 0 6 0;
#X connect 4 0 6 1;
#X connect 5 0 15 0;
#X connect 7 0 9 0;
#X connect 7 1 9 1;
#X connect 8 0 4 0;
#X connect 9 0 10 0;
#X connect 9 1 8 0;
#X connect 10 0 3 0;
#X connect 11 0 14 0;
#X connect 11 1 14 1;
#X connect 12 0 13 0;
#X connect 12 1 13 1;
#X connect 13 0 9 0;
#X connect 13 1 9 1;
#X connect 14 0 13 0;
#X connect 14 1 13 1;
#X connect 15 0 4 1;
#X connect 15 0 3 1;
