#N canvas 663 272 1357 919 12;
#X declare -path tools;
#X declare -path components;
#X declare -path .;
#X declare -path samples;
#X obj 13 41 declare -path tools;
#X obj 13 63 declare -path components;
#X obj 13 19 declare -path .;
#N canvas 1063 551 1505 907 game-tempo 1;
#X obj 93 181 s global-beat;
#X obj 93 104 metro 0 144 permin;
#X obj 93 34 loadbang;
#X obj 53 85 tgl 19 0 empty empty empty 0 -10 0 12 #fcfcfc #000000 #000000 0 1;
#X msg 53 61 1;
#X connect 1 0 0 0;
#X connect 2 0 1 0;
#X connect 2 0 4 0;
#X connect 3 0 1 0;
#X connect 4 0 3 0;
#X restore 293 20 pd game-tempo;
#X obj 13 85 declare -path samples;
#N canvas 693 656 1789 808 playground 0;
#X restore 293 48 pd playground;
