#N canvas -5857 154 2341 1126 12;
#X obj 349 377 dac~;
#X obj 349 263 osc~;
#X floatatom 349 239 5 0 0 0 - - - 0;
#X obj 349 90 loadbang;
#X obj 1338 832 cnv 19 126 76 empty empty empty 20 12 0 12 #e0e0e0 #404040 0;
#X obj 349 135 random 100;
#X obj 349 175 + 100;
#X connect 1 0 0 0;
#X connect 1 0 0 1;
#X connect 2 0 1 0;
#X connect 3 0 5 0;
#X connect 5 0 6 0;
#X connect 6 0 2 0;
