#N canvas 5 5 1973 1101 12;
#X obj 415 385 line~;
#X obj 302 359 osc~ 219;
#X obj 285 427 *~;
#X obj 410 236 bng 19 250 50 0 empty empty empty 0 -10 0 12 -262144
-1 -1;
#X obj 476 263 del 100;
#X obj 344 649 dac~;
#X msg 476 310 0 300;
#X obj 410 209 del 120;
#X obj 232 176 loadbang;
#X obj 297 297 + 200;
#X obj 411 549 loadbang;
#X msg 410 574 0.2;
#X obj 263 278 * 20;
#X obj 232 251 random 8;
#X obj 348 587 *~;
#X obj 215 360 phasor~ 219;
#X obj 330 476 *~;
#X obj 205 214 bng 15 250 50 0 empty empty empty 17 7 0 10 -262144
-1 -1;
#X msg 410 279 1 20;
#X obj 410 90 receive trigger;
#X obj 410 115 t b f;
#X obj 673 261 print;
#X obj 525 177 * 1000;
#X connect 0 0 16 1;
#X connect 1 0 2 1;
#X connect 2 0 16 0;
#X connect 3 0 4 0;
#X connect 3 0 18 0;
#X connect 4 0 6 0;
#X connect 6 0 0 0;
#X connect 7 0 3 0;
#X connect 8 0 13 0;
#X connect 9 0 1 0;
#X connect 9 0 15 0;
#X connect 10 0 11 0;
#X connect 11 0 14 1;
#X connect 12 0 9 0;
#X connect 13 0 12 0;
#X connect 14 0 5 0;
#X connect 14 0 5 1;
#X connect 15 0 2 0;
#X connect 16 0 14 0;
#X connect 17 0 13 0;
#X connect 18 0 0 0;
#X connect 19 0 20 0;
#X connect 20 0 7 0;
#X connect 20 1 22 0;
#X connect 22 0 7 1;
#X connect 22 0 21 0;
