#N canvas 834 191 1973 1101 12;
#X obj 62 56 r global-beat;
#X obj 62 86 bng 19 250 50 0 empty empty empty 0 -10 0 12 #fcfcfc #000000 #000000;
#X obj 426 105 soundfiler;
#X obj 62 258 dac~;
#X floatatom 111 196 5 0 0 0 - - - 0;
#X obj 62 223 *~;
#X obj 426 14 loadbang;
#X obj 62 112 tabplay~ \$0-playback;
#X msg 426 78 read -resize samples/kick1.wav \$1-playback;
#X obj 426 48 i \$0;
#X obj 403 14 bng 19 250 50 0 empty empty empty 0 -10 0 12 #fcfcfc #000000 #000000;
#X obj 426 142 array define \$0-playback;
#X obj 112 134 loadbang;
#X msg 112 165 1;
#X obj 270 111 print;
#X connect 0 0 1 0;
#X connect 1 0 7 0;
#X connect 1 0 14 0;
#X connect 4 0 5 1;
#X connect 5 0 3 0;
#X connect 5 0 3 1;
#X connect 6 0 9 0;
#X connect 7 0 5 0;
#X connect 8 0 2 0;
#X connect 9 0 8 0;
#X connect 10 0 9 0;
#X connect 12 0 13 0;
#X connect 13 0 4 0;
