#N canvas 8706 366 1973 1101 12;
#X obj 413 378 line~;
#X obj 302 359 osc~ 219;
#X obj 348 421 *~;
#X obj 410 236 bng 19 250 50 0 empty empty empty 0 -10 0 12 #fcfcfc #000000 #000000;
#X obj 476 263 del 100;
#X msg 410 279 1 100;
#X obj 342 549 dac~;
#X msg 476 310 0 300;
#X obj 410 137 receive bang;
#X obj 410 189 del 120;
#X obj 232 211 loadbang;
#X obj 297 297 + 200;
#X obj 406 436 loadbang;
#X msg 408 474 0.2;
#X obj 263 278 * 20;
#X obj 232 251 random 8;
#X obj 346 487 *~;
#X connect 0 0 2 1;
#X connect 1 0 2 0;
#X connect 2 0 16 0;
#X connect 3 0 4 0;
#X connect 3 0 5 0;
#X connect 4 0 7 0;
#X connect 5 0 0 0;
#X connect 7 0 0 0;
#X connect 8 0 9 0;
#X connect 9 0 3 0;
#X connect 10 0 15 0;
#X connect 11 0 1 0;
#X connect 12 0 13 0;
#X connect 13 0 16 1;
#X connect 14 0 11 0;
#X connect 15 0 14 0;
#X connect 16 0 6 0;
#X connect 16 0 6 1;
